<svg width="169" height="183" viewBox="0 0 169 183" fill="none" xmlns="http://www.w3.org/2000/svg">
<path d="M73.0712 118.653C69.6148 140.563 58.4092 162.638 34.7449 183L0 49.0335L46 131.5C55.3798 127.422 64.4535 123.197 73.0712 118.653C79.7105 76.5664 57.7589 35.0853 40.5949 7.50586C76.3114 20.8098 100.972 50.6062 118.487 85.757C137.658 65.3992 149.494 38.5542 149.494 0C173.344 49.6816 177.574 113.017 149.494 177.639C142.569 147.548 132.971 114.822 118.487 85.757C106.033 98.9831 90.4824 109.471 73.0712 118.653Z" fill="url(#paint0_linear_2_2)"/>
<defs>
<linearGradient id="paint0_linear_2_2" x1="55.7343" y1="-17.1563" x2="55.7343" y2="203.016" gradientUnits="userSpaceOnUse">
<stop stop-color="#22DBD0"/>
<stop offset="0.51" stop-color="#1F6EB7"/>
<stop offset="1" stop-color="#11258E"/>
</linearGradient>
</defs>
</svg>
